<svg width="20" height="12" viewBox="0 0 20 12" fill="none" xmlns="http://www.w3.org/2000/svg">
<path d="M18.784 8.31563L10.919 0.542297C10.7485 0.370461 10.5458 0.234072 10.3224 0.140996C10.0989 0.0479205 9.85932 0 9.6173 0C9.37527 0 9.13565 0.0479205 8.91224 0.140996C8.68883 0.234072 8.48606 0.370461 8.31563 0.542297L0.542297 8.31563C0.370461 8.48606 0.234071 8.68883 0.140996 8.91224C0.0479197 9.13565 0 9.37527 0 9.6173C0 9.85932 0.0479197 10.0989 0.140996 10.3224C0.234071 10.5458 0.370461 10.7485 0.542297 10.919C0.885795 11.2604 1.35046 11.4521 1.8348 11.4521C2.31914 11.4521 2.7838 11.2604 3.1273 10.919L9.6173 4.42896L16.1073 10.919C16.4488 11.2577 16.9097 11.4486 17.3906 11.4506C17.6319 11.452 17.8711 11.4058 18.0945 11.3145C18.3178 11.2233 18.521 11.0889 18.6923 10.919C18.8703 10.7547 19.0139 10.5567 19.1149 10.3366C19.216 10.1164 19.2724 9.87847 19.2809 9.63641C19.2894 9.39434 19.2499 9.15299 19.1646 8.92629C19.0793 8.69959 18.9499 8.49204 18.784 8.31563Z" fill="#786460"/>
</svg>
