<svg width="44" height="44" viewBox="0 0 44 44" fill="none" xmlns="http://www.w3.org/2000/svg">
<path d="M31.1668 16.8117C30.8233 16.4702 30.3586 16.2786 29.8743 16.2786C29.3899 16.2786 28.9253 16.4702 28.5818 16.8117L22.0001 23.3017L15.5101 16.8117C15.1666 16.4702 14.7019 16.2786 14.2176 16.2786C13.7333 16.2786 13.2686 16.4702 12.9251 16.8117C12.7533 16.9821 12.6169 17.1849 12.5238 17.4083C12.4307 17.6317 12.3828 17.8713 12.3828 18.1134C12.3828 18.3554 12.4307 18.595 12.5238 18.8184C12.6169 19.0418 12.7533 19.2446 12.9251 19.415L20.6984 27.1883C20.8689 27.3602 21.0716 27.4966 21.2951 27.5897C21.5185 27.6827 21.7581 27.7306 22.0001 27.7306C22.2421 27.7306 22.4818 27.6827 22.7052 27.5897C22.9286 27.4966 23.1313 27.3602 23.3018 27.1883L31.1668 19.415C31.3386 19.2446 31.475 19.0418 31.5681 18.8184C31.6612 18.595 31.7091 18.3554 31.7091 18.1134C31.7091 17.8713 31.6612 17.6317 31.5681 17.4083C31.475 17.1849 31.3386 16.9821 31.1668 16.8117Z" fill="#786460"/>
</svg>
